# xmcd
#
# Track frame offsets:
#      150
#      21420
#      39880
#      60315
#      77937
#      98585
#      115050
#      131550
#      149200
#      174535
#      193772
#      211070
#      231452
#      249700
#      271235
#      288625
#      309480
#      329372
# 
# Disc length: 4631 seconds
#
# Revision: 1
# Processed by: cddbd v1.4PL0 Copyright (c) Steve Scherf et al.
#
# Submitted via: FreeRIP 1.21
#
DISCID=0c121512
DTITLE=Various Artist - Love Songs - CD 1
DYEAR=1900
DGENRE=blues
TTITLE0=Queen  Heaven For Everyone
TTITLE1=Fugees  Killing Me Softly
TTITLE2=Celine Dion  Because You Loved Me
TTITLE3=Backstreet Boys  I'll Never Break Your Heart
TTITLE4=Whitney Houston  Where Do Broken Hearts Go
TTITLE5=Cat Stevens  Father And Son
TTITLE6=Take That  How Deep Is Your Love
TTITLE7=Nick Cave and The Bad Seeds  Where The Wild Roses Grow
TTITLE8=George Michael  Father Figure
TTITLE9=Tina Turner  On Silent Wings
TTITLE10=Everything But The Girl  Missing
TTITLE11=Ten Sharp  You
TTITLE12=Billy Joel  Leningrad
TTITLE13=Sophie B. Hawkins  Right Beside You
TTITLE14=Dusty Springfield and Daryl Hall  Wherever Would I Be?
TTITLE15=Elton John  Rocket Man
TTITLE16=Amanda Marshall  Let It Rain
TTITLE17=Heart  All I Wanna Do Is Make Love To You
EXTD=
EXTT0=
EXTT1=
EXTT2=
EXTT3=
EXTT4=
EXTT5=
EXTT6=
EXTT7=
EXTT8=
EXTT9=
EXTT10=
EXTT11=
EXTT12=
EXTT13=
EXTT14=
EXTT15=
EXTT16=
EXTT17=
PLAYORDER=
